<svg width="120" height="29" viewBox="0 0 120 29" fill="none" xmlns="http://www.w3.org/2000/svg">
<path fill-rule="evenodd" clip-rule="evenodd" d="M18.9459 12.4115H19.4139L20.2719 17.8195H18.1139L18.9459 12.4115ZM17.6199 19.9255H20.7659L21.3639 23.5915H30.6979L23.2099 5.39146H15.1759L7.68791 23.5915H17.0219L17.6199 19.9255ZM11.8264 0.391465L0.224121 28.5915H44.2785C47.1054 28.5915 49.9958 28.0641 52.4077 26.4344L52.4139 26.4303L52.42 26.4261C52.605 26.3003 52.7844 26.1698 52.9581 26.0348C55.9072 28.1194 59.4461 28.9815 63.1983 28.9815C67.3267 28.9815 71.2013 27.9375 74.3032 25.3526L74.3065 25.3498L74.3664 25.2996C74.5255 25.4459 74.6898 25.5892 74.8595 25.7294L74.8691 25.7374L74.8787 25.7453C77.786 28.1239 81.4708 28.9815 85.2729 28.9815C89.0709 28.9815 92.7613 28.1256 95.6604 25.7294C95.9034 25.5285 96.1355 25.3213 96.3569 25.1081L95.9074 28.5915H115.029L113.706 18.3442L119.576 18.5772L119.458 0.391465H70.4969V1.34876C68.2475 0.410958 65.7729 0.00146484 63.1983 0.00146484C59.2963 0.00146484 55.6277 0.94179 52.6142 3.22179C52.2264 2.89371 51.8064 2.59255 51.3569 2.32045C48.9902 0.861097 46.1913 0.391465 43.4464 0.391465H11.8264ZM49.4552 22.3915C48.1856 23.1915 46.46 23.5915 44.2785 23.5915H31.3824V5.39146H43.4464C45.6998 5.39146 47.4678 5.79013 48.7505 6.58747C48.9302 6.69534 49.0976 6.80967 49.2525 6.93047C50.2178 7.68316 50.7005 8.68682 50.7005 9.94147C50.7005 10.0975 50.6931 10.2492 50.6784 10.3967C50.5704 11.4785 50.0664 12.3321 49.1665 12.9575C49.1521 12.9674 49.1377 12.9773 49.1231 12.9872C49.1142 12.9932 49.1053 12.9992 49.0963 13.0052C48.993 13.0741 48.8855 13.1394 48.7737 13.2012C48.35 13.4356 47.8652 13.6199 47.3193 13.7541C46.5885 13.9337 45.7482 14.0235 44.7984 14.0235V14.4915C45.7304 14.4915 46.566 14.5508 47.3052 14.6694C47.8234 14.7525 48.2943 14.8648 48.7179 15.0062C48.9618 15.0877 49.1901 15.1788 49.4026 15.2796C50.4453 15.7742 51.1098 16.5016 51.396 17.4617C51.5043 17.825 51.5585 18.2216 51.5585 18.6515C51.5585 20.1941 50.9085 21.4075 49.6085 22.2915C49.5581 22.3255 49.5071 22.3588 49.4552 22.3915ZM43.0384 16.7769C42.9853 16.7786 42.9306 16.7795 42.8744 16.7795H38.0384V15.0115H42.8744C42.9306 15.0115 42.9853 15.0123 43.0384 15.014C43.9691 15.0442 44.4344 15.338 44.4344 15.8955C44.4344 16.453 43.9691 16.7468 43.0384 16.7769ZM38.0384 13.7635V12.1775H42.5364L42.5624 12.1775C42.6724 12.178 42.7764 12.1814 42.8744 12.1878C42.9311 12.1914 42.9857 12.1961 43.0384 12.2018C43.7438 12.2773 44.0964 12.5292 44.0964 12.9575C44.0964 13.4037 43.7438 13.6647 43.0384 13.7403C42.9857 13.746 42.9311 13.7506 42.8744 13.7542C42.7764 13.7604 42.6724 13.7635 42.5624 13.7635H38.0384ZM53.2979 9.94147C53.7796 9.00543 54.4364 8.19076 55.2683 7.49747C55.2974 7.47318 55.3267 7.44907 55.356 7.42513C57.339 5.80936 59.9531 5.00147 63.1983 5.00147C66.1661 5.00147 68.5989 5.67708 70.4969 7.02832C70.7052 7.17657 70.907 7.33295 71.1023 7.49747C73.0957 9.14413 74.0923 11.4755 74.0923 14.4915C74.0923 14.9957 74.0645 15.481 74.0088 15.9475C73.7531 18.0881 72.9107 19.8307 71.4816 21.1754C71.3594 21.2904 71.233 21.4024 71.1023 21.5115C69.1263 23.1581 66.4917 23.9815 63.1983 23.9815C60.2706 23.9815 57.8566 23.3308 55.9563 22.0295C55.719 21.867 55.4896 21.6943 55.2683 21.5115C54.3208 20.7136 53.6005 19.7602 53.1073 18.6515C52.8389 18.048 52.6378 17.3985 52.5039 16.703C52.3709 16.0113 52.3043 15.2742 52.3043 14.4915C52.3043 13.3717 52.4405 12.3464 52.7129 11.4154C52.8653 10.8945 53.0603 10.4032 53.2979 9.94147ZM75.4969 15.9475V5.39146H82.7769L82.2049 12.4375C82.1183 13.5121 82.3349 14.3701 82.8549 15.0115C83.3749 15.6528 84.1809 15.9735 85.2729 15.9735C86.3649 15.9735 87.1709 15.6528 87.6909 15.0115C88.2283 14.3528 88.4536 13.4948 88.3669 12.4375L87.7949 5.39146H95.0229V15.9475C95.0229 16.8524 94.9158 17.6852 94.7015 18.4459C94.3125 19.8269 93.5703 20.9701 92.4749 21.8755C90.7763 23.2795 88.3756 23.9815 85.2729 23.9815C82.1703 23.9815 79.7609 23.2795 78.0449 21.8755C77.8566 21.7198 77.6787 21.5571 77.5113 21.3874C76.1684 20.0263 75.4969 18.213 75.4969 15.9475ZM109.342 23.5915H101.594L102.946 13.1135L96.42 13.3735L96.472 5.39146H114.49L114.542 13.3735L107.99 13.1135L109.342 23.5915ZM65.8836 12.9591C65.2629 12.1306 64.2297 11.6462 63.1276 11.7768C62.3678 11.8669 61.7081 12.2335 61.2373 12.7641C60.8177 12.8489 60.4487 12.9654 60.1303 13.1135C59.4023 13.4428 59.0383 13.9021 59.0383 14.4915C59.0383 15.0808 59.411 15.5401 60.1563 15.8695C60.3508 15.9554 60.5635 16.0301 60.7945 16.0936C61.3432 17.1955 62.5411 17.8883 63.8337 17.7351C64.9635 17.6012 65.8719 16.8558 66.2671 15.8691C67.0119 15.5398 67.3843 15.0806 67.3843 14.4915C67.3843 13.9021 67.0117 13.4428 66.2663 13.1135C66.146 13.0575 66.0184 13.006 65.8836 12.9591Z" fill="#FF450B"/>
<path d="M17.62 19.9255L17.022 23.5915H7.68799L15.176 5.39146H23.21L30.698 23.5915H21.364L20.766 19.9255H17.62ZM19.414 12.4115H18.946L18.114 17.8195H20.272L19.414 12.4115Z" fill="white"/>
<path d="M44.2785 23.5915H31.3825V5.39146L43.4465 5.39146C45.6999 5.39146 47.4679 5.79013 48.7505 6.58746C50.0505 7.36747 50.7005 8.48547 50.7005 9.94147C50.7005 11.2415 50.1892 12.2468 49.1665 12.9575C48.1439 13.6681 46.6879 14.0235 44.7985 14.0235V14.4915C49.3052 14.4915 51.5585 15.8781 51.5585 18.6515C51.5585 20.1941 50.9085 21.4075 49.6085 22.2915C48.3259 23.1581 46.5492 23.5915 44.2785 23.5915ZM38.0385 12.1775V13.7635H42.5625C43.5852 13.7635 44.0965 13.4948 44.0965 12.9575C44.0965 12.4375 43.5765 12.1775 42.5365 12.1775H38.0385ZM38.0385 15.0115V16.7795H42.8745C43.9145 16.7795 44.4345 16.4848 44.4345 15.8955C44.4345 15.3061 43.9145 15.0115 42.8745 15.0115H38.0385Z" fill="white"/>
<path d="M71.1024 21.5115C69.1264 23.1581 66.4917 23.9815 63.1984 23.9815C59.9051 23.9815 57.2617 23.1581 55.2684 21.5115C53.2924 19.8475 52.3044 17.5075 52.3044 14.4915C52.3044 11.4755 53.2924 9.14413 55.2684 7.49747C57.2617 5.83346 59.9051 5.00146 63.1984 5.00146C66.4917 5.00146 69.1264 5.83346 71.1024 7.49747C73.0957 9.14413 74.0924 11.4755 74.0924 14.4915C74.0924 17.5075 73.0957 19.8475 71.1024 21.5115ZM63.1984 16.3635C64.4984 16.3635 65.5211 16.1988 66.2664 15.8695C67.0117 15.5401 67.3844 15.0808 67.3844 14.4915C67.3844 13.9021 67.0117 13.4428 66.2664 13.1135C65.5211 12.7668 64.4984 12.5935 63.1984 12.5935C61.8984 12.5935 60.8757 12.7668 60.1304 13.1135C59.4024 13.4428 59.0384 13.9021 59.0384 14.4915C59.0384 15.0808 59.4111 15.5401 60.1564 15.8695C60.9017 16.1988 61.9157 16.3635 63.1984 16.3635Z" fill="white"/>
<path d="M92.475 21.8755C90.7763 23.2795 88.3757 23.9815 85.273 23.9815C82.1703 23.9815 79.761 23.2795 78.045 21.8755C76.3463 20.4715 75.497 18.4955 75.497 15.9475V5.39146H82.777L82.205 12.4375C82.1183 13.5121 82.335 14.3701 82.855 15.0115C83.375 15.6528 84.181 15.9735 85.273 15.9735C86.365 15.9735 87.171 15.6528 87.691 15.0115C88.2283 14.3528 88.4537 13.4948 88.367 12.4375L87.795 5.39146H95.023V15.9475C95.023 18.4955 94.1737 20.4715 92.475 21.8755Z" fill="white"/>
<path d="M114.49 5.39146L114.542 13.3735L107.99 13.1135L109.342 23.5915H101.594L102.946 13.1135L96.4201 13.3735L96.4721 5.39146L114.49 5.39146Z" fill="white"/>
</svg>
