<svg width="61" height="60" viewBox="0 0 61 60" fill="none" xmlns="http://www.w3.org/2000/svg">
<path d="M53.1426 17.9519C53.1657 18.4799 53.1657 18.9839 53.1657 19.5119C53.1889 35.5199 41.4277 54 19.9196 54C13.576 54 7.34809 52.104 2 48.552C2.92608 48.672 3.85215 48.72 4.77823 48.72C10.0337 48.72 15.1503 46.896 19.2945 43.512C14.2937 43.416 9.8948 40.032 8.36678 35.0879C10.1263 35.4479 11.9322 35.3759 13.6454 34.8719C8.20471 33.7679 4.29204 28.7999 4.26889 23.0159C4.26889 22.9679 4.26889 22.9199 4.26889 22.8719C5.88952 23.8079 7.71852 24.3359 9.57067 24.3839C4.4541 20.8319 2.85662 13.7519 5.95898 8.20785C11.909 15.7919 20.6604 20.3759 30.0601 20.8799C29.1109 16.6799 30.4074 12.2639 33.4403 9.28786C38.1401 4.70384 45.5487 4.94384 49.9939 9.81586C52.6101 9.28786 55.1336 8.27985 57.4257 6.86385C56.5459 9.67186 54.7169 12.0479 52.2859 13.5599C54.6011 13.2719 56.87 12.6239 59 11.6639C57.4257 14.1119 55.4346 16.2239 53.1426 17.9519Z" fill="#1D9BF0"/>
</svg>
