<?xml version="1.0" encoding="UTF-8"?>
<svg xmlns="http://www.w3.org/2000/svg" xmlns:xlink="http://www.w3.org/1999/xlink" width="24px" height="24px" viewBox="0 0 24 24" version="1.1">
<defs>
<clipPath id="clip1">
  <path d="M 0.800781 2 L 23.613281 2 L 23.613281 21.148438 L 0.800781 21.148438 Z M 0.800781 2 "/>
</clipPath>
</defs>
<g id="surface1">
<g clip-path="url(#clip1)" clip-rule="nonzero">
<path style=" stroke:none;fill-rule:evenodd;fill:rgb(0%,0%,0%);fill-opacity:1;" d="M 10.320312 14.960938 L 18.542969 21.148438 L 23.3125 2.808594 C 23.3125 2.808594 23.613281 1.988281 22.335938 2.390625 L 1.523438 8.949219 C 1.523438 8.949219 0.386719 9.5 1.363281 10.261719 C 2.335938 11.023438 6.949219 12.804688 6.949219 12.804688 L 18.703125 6.117188 C 19.910156 5.433594 11.34375 13.945312 10.320312 14.960938 L 13.140625 17.082031 Z M 10.320312 14.960938 "/>
</g>
<path style="fill-rule:evenodd;fill:rgb(0%,0%,0%);fill-opacity:1;stroke-width:6.94;stroke-linecap:butt;stroke-linejoin:miter;stroke:rgb(0%,0%,0%);stroke-opacity:1;stroke-miterlimit:2.613;" d="M 5546.645517 6679.158811 L 4486.578085 5912.000786 L 5084.368688 7398.026488 Z M 5546.645517 6679.158811 " transform="matrix(0.00357436,0,0,0.0035592,-5.716332,-6.081055)"/>
</g>
</svg>
